<svg xmlns="http://www.w3.org/2000/svg" viewBox="0 0 127 35">
  <title>withLoveLogo</title>
  <g>
    <path d="M27.52,16.18c-1.66.26-2,.61-2.64,2.44-.95,2.51-2.51,7-3.91,11.33H20c-1.3-3.48-2.64-6.87-3.91-10.22-1.2,3-2.67,6.61-4,10.22h-1c-1.17-3.87-2.4-7.72-3.74-11.62-.59-1.76-.88-2-2.47-2.15V15.3h6.77v.88c-1.95.32-2.09.48-1.63,2,.75,2.51,1.63,5.18,2.41,7.62,1.3-3.32,2.61-6.71,3.87-10.32h.88c1.21,3.39,2.54,6.9,3.91,10.42.72-2,1.76-5.18,2.38-7.55.42-1.7.16-1.86-2.05-2.15V15.3h6.09Z"/>
    <path d="M28.81,29.59v-.91c2.05-.2,2.28-.36,2.28-2.57V19.4c0-2-.09-2.15-2.05-2.47v-.79a21,21,0,0,0,4.63-1.3V26.11c0,2.21.22,2.37,2.34,2.57v.91ZM33.74,8A3.91,3.91,0,0,0,33.83,6a1.42,1.42,0,0,0-1.57-1,1.63,1.63,0,0,0-.64.36,2.48,2.48,0,0,0-.79,1,2.49,2.49,0,0,0,0,1.7,14,14,0,0,1,.7,1.59c.44,2,.16,4.75.3,4.64.26-1.39,3-4.67,3.66-5a3.52,3.52,0,0,0,1.72-1.55,2.15,2.15,0,0,0-.62-2.48,1,1,0,0,0-.4-.2.77.77,0,0,0-.45,0,2.63,2.63,0,0,0-1.29,1.51"/>
    <path d="M43.89,29.56a3.36,3.36,0,0,1-1.4.42c-2.09,0-3.19-1.27-3.19-3.87V16.63H37.05l-.13-.39.88-.94h1.5V12.56c.62-.65,1.56-1.5,2.18-2.15l.49.07c-.07,1.37-.1,3.25-.1,4.82h3.71a1,1,0,0,1-.19,1.33H41.87V25c0,2.64,1,3.12,1.89,3.12a4.58,4.58,0,0,0,2-.52l.3.85Z"/>
    <path d="M56.45,29.59v-.91c1.89-.2,2.15-.36,2.15-2.51V20.83c0-2.7-1-4.07-3.22-4a4.63,4.63,0,0,0-3.45,1.7v7.68c0,2.12.26,2.31,2.21,2.51v.91H47v-.91c1.89-.16,2.32-.33,2.32-2.51V10.48c0-1.73-.1-2.15-2.28-2.35V7.29a20.33,20.33,0,0,0,4.85-1.11v11.1a7.34,7.34,0,0,1,4.72-2.37c2.67,0,4.53,1.66,4.53,5.56v5.74c0,2.14.26,2.31,2.14,2.47v.91Z"/>
  </g>
  <g>
    <path d="M71.27,29.59v-.91c2.09-.2,2.35-.36,2.35-2.51V10.58c0-2-.17-2.19-2.25-2.45V7.29a23.35,23.35,0,0,0,4.82-1.11v20c0,2.15.2,2.31,2.31,2.51v.91Z"/>
    <path d="M87.06,14.91a7,7,0,0,1,7.1,7.29c0,5.28-3.91,7.78-7.1,7.78a7.15,7.15,0,0,1-7.23-7.26A7.46,7.46,0,0,1,87.06,14.91ZM86.67,16c-2,0-3.77,1.92-3.77,5.7,0,4.14,1.82,7.13,4.49,7.13,2,0,3.71-1.46,3.71-5.92C91.1,19.11,89.54,16,86.67,16Z"/>
    <path d="M109.76,16.18c-1.76.22-2,.48-2.84,2.44-1.07,2.6-2.93,6.93-4.62,11.33h-1c-1.36-3.74-3-7.62-4.49-11.43-.75-1.89-1-2.08-2.7-2.34V15.3h6.64v.88c-1.79.22-1.86.45-1.33,1.85.81,2.25,2.18,5.7,3.09,8,1.17-2.9,2.25-5.57,3-7.65.56-1.6.46-2-1.69-2.18V15.3h5.93Z"/>
    <path d="M121.18,26.82c-2.08,2.61-4.36,3.16-5.4,3.16-4,0-6.39-3.25-6.39-7a8.41,8.41,0,0,1,2.12-5.7,6.68,6.68,0,0,1,4.85-2.37,5.07,5.07,0,0,1,5,5c0,.65-.13.95-.65,1.08s-4.82.42-8.69.55c-.1,4.36,2.57,6.16,4.88,6.16a5.53,5.53,0,0,0,3.78-1.66Zm-5.6-10.68c-1.5,0-3,1.4-3.42,4,1.83,0,3.65,0,5.57-.1.59,0,.78-.16.78-.65A3,3,0,0,0,115.58,16.14Z"/>
  </g>
</svg>
